<?xml version="1.0" encoding="UTF-8"?>
<!DOCTYPE svg PUBLIC "-//W3C//DTD SVG 1.1//EN" "http://www.w3.org/Graphics/SVG/1.1/DTD/svg11.dtd">
<!-- Creator: CorelDRAW -->
<svg xmlns="http://www.w3.org/2000/svg" xml:space="preserve" width="6.82666in" height="6.82666in" style="shape-rendering:geometricPrecision; text-rendering:geometricPrecision; image-rendering:optimizeQuality; fill-rule:evenodd; clip-rule:evenodd"
viewBox="0 0 6.82666 6.82666"
 xmlns:xlink="http://www.w3.org/1999/xlink">
 <defs>
  <style type="text/css">
   <![CDATA[
    .str0 {stroke:#212121;stroke-width:0.213335;stroke-linecap:round;stroke-linejoin:round}
    .fil1 {fill:none}
    .fil2 {fill:#212121}
    .fil0 {fill:#212121;fill-rule:nonzero}
   ]]>
  </style>
 </defs>
 <g id="Layer_x0020_1">
  <metadata id="CorelCorpID_0Corel-Layer"/>
  <g id="_435222784">
   <path id="_435222592" class="fil0" d="M2.66173 2.22901c0.000846457,0.015122 0.00220079,0.0309646 0.00402362,0.0474606l0.0125354 0.113406 -0.113961 0c-0.326354,0 -0.690862,0.00498425 -0.963366,0.119835 -0.254957,0.107461 -0.436516,0.320382 -0.436516,0.73976 0,0.23628 0.0967402,0.451161 0.252583,0.607008 0.155843,0.155846 0.37072,0.252587 0.607,0.252587l0.683063 0c-0.033185,0.064689 -0.0601299,0.13311 -0.0800827,0.204449l-0.60298 0c-0.292709,0 -0.558748,-0.119681 -0.751551,-0.312484 -0.192803,-0.192807 -0.31248,-0.458846 -0.31248,-0.751559 0,-0.521114 0.233709,-0.78911 0.561898,-0.927433 0.278571,-0.117409 0.618177,-0.134098 0.934287,-0.136295l-1.5748e-005 -0.00496457c0,-0.293815 0.119098,-0.559827 0.311657,-0.752386 0.192555,-0.192555 0.458567,-0.311657 0.752382,-0.311657 0.293815,0 0.559827,0.119102 0.752386,0.311657 0.192555,0.192559 0.311657,0.458571 0.311657,0.752386l-2.75591e-005 0.00621654c0.298043,0.00886614 0.593264,0.0572165 0.826327,0.191795 0.272949,0.15761 0.456114,0.425606 0.456114,0.870681 0,0.292713 -0.119677,0.558752 -0.31248,0.751559 -0.192807,0.192803 -0.458843,0.312484 -0.751555,0.312484l-0.0573543 0c-0.0199488,-0.0713386 -0.0468976,-0.13976 -0.0800827,-0.204449l0.137437 0c0.23628,0 0.451154,-0.0967362 0.607004,-0.252587 0.155843,-0.155846 0.252583,-0.370728 0.252583,-0.607008 0,-0.358988 -0.142118,-0.571906 -0.35389,-0.694189 -0.223472,-0.129039 -0.528319,-0.165406 -0.83224,-0.165406l-0.113937 0 0.0125118 -0.113406c0.0018189,-0.0164961 0.00317717,-0.0323465 0.00402362,-0.0474606 0.00073622,-0.0131102 0.00111811,-0.0291378 0.00111811,-0.0482323 0,-0.237382 -0.0962126,-0.452287 -0.25176,-0.607835 -0.155547,-0.155547 -0.370453,-0.25176 -0.607835,-0.25176 -0.237382,0 -0.452283,0.0962126 -0.607835,0.25176 -0.155547,0.155547 -0.251756,0.370453 -0.251756,0.607835 0,0.0190945 0.00038189,0.035122 0.00111417,0.0482323z"/>
   <path id="_435222568" class="fil0" d="M3.68615 3.51059c0.30365,0 0.578571,0.123087 0.777567,0.322094 0.199004,0.199004 0.322094,0.473921 0.322094,0.777567 0,0.303654 -0.123091,0.578571 -0.322094,0.777575 -0.198996,0.199004 -0.473917,0.322094 -0.777567,0.322094 -0.303646,0 -0.578571,-0.123091 -0.777571,-0.322094 -0.199004,-0.199004 -0.322091,-0.473921 -0.322091,-0.777575 0,-0.303646 0.123087,-0.578563 0.322091,-0.777567 0.199,-0.199008 0.473925,-0.322094 0.777571,-0.322094zm0.633016 0.466642c-0.161992,-0.161992 -0.385799,-0.262193 -0.633016,-0.262193 -0.247217,0 -0.471028,0.100201 -0.63302,0.262193 -0.161996,0.161996 -0.262193,0.385807 -0.262193,0.63302 0,0.247217 0.100197,0.471031 0.262193,0.633028 0.161992,0.161992 0.385803,0.262193 0.63302,0.262193 0.247217,0 0.471024,-0.100201 0.633016,-0.262193 0.161996,-0.161996 0.262197,-0.385811 0.262197,-0.633028 0,-0.247213 -0.100201,-0.471024 -0.262197,-0.63302z"/>
   <line id="_435222184" class="fil1 str0" x1="3.68615" y1="3.90864" x2="3.68615" y2= "4.82949" />
   <circle id="_435222616" class="fil2" cx="3.68614" cy="5.19128" r="0.120599"/>
  </g>
 </g>
 <rect class="fil1" width="6.82666" height="6.82666"/>
</svg>
