<!DOCTYPE svg PUBLIC "-//W3C//DTD SVG 1.1//EN" "http://www.w3.org/Graphics/SVG/1.1/DTD/svg11.dtd">
<!-- Uploaded to: SVG Repo, www.svgrepo.com, Transformed by: SVG Repo Mixer Tools -->
<svg fill="#778990" width="256px" height="256px" viewBox="0 0 1024 1024" xmlns="http://www.w3.org/2000/svg">
<g id="SVGRepo_bgCarrier" stroke-width="0"/>
<g id="SVGRepo_tracerCarrier" stroke-linecap="round" stroke-linejoin="round"/>
<g id="SVGRepo_iconCarrier">
<path d="M604.16 788.48H419.84V947.2c0 14.138-11.462 25.6-25.6 25.6s-25.6-11.462-25.6-25.6V762.88c0-14.138 11.462-25.6 25.6-25.6h235.52c14.138 0 25.6 11.462 25.6 25.6V947.2c0 14.138-11.462 25.6-25.6 25.6s-25.6-11.462-25.6-25.6V788.48zm385.033 130.041c14.138 0 25.6 11.462 25.6 25.6s-11.462 25.6-25.6 25.6h-80.475c-14.138 0-25.6-11.462-25.6-25.6V347.279a5.12 5.12 0 00-5.12-5.12H530.98c-25.449 0-46.08-20.631-46.08-46.08V123.205a5.12 5.12 0 00-5.12-5.12H141.694a5.12 5.12 0 00-5.12 5.12V946.48c0 14.138-11.462 25.6-25.6 25.6H27.521c-14.138 0-25.6-11.462-25.6-25.6s11.462-25.6 25.6-25.6h57.853V123.205c0-31.105 25.215-56.32 56.32-56.32H479.78c31.105 0 56.32 25.215 56.32 56.32v167.754h341.898c31.105 0 56.32 25.215 56.32 56.32v571.242h54.875zM220.16 174.08h184.32c14.138 0 25.6 11.462 25.6 25.6s-11.462 25.6-25.6 25.6H220.16c-14.138 0-25.6-11.462-25.6-25.6s11.462-25.6 25.6-25.6zm0 112.64h184.32c14.138 0 25.6 11.462 25.6 25.6s-11.462 25.6-25.6 25.6H220.16c-14.138 0-25.6-11.462-25.6-25.6s11.462-25.6 25.6-25.6zm0 112.64h583.68c14.138 0 25.6 11.462 25.6 25.6s-11.462 25.6-25.6 25.6H220.16c-14.138 0-25.6-11.462-25.6-25.6s11.462-25.6 25.6-25.6zm0 112.64h583.68c14.138 0 25.6 11.462 25.6 25.6s-11.462 25.6-25.6 25.6H220.16c-14.138 0-25.6-11.462-25.6-25.6s11.462-25.6 25.6-25.6zm0 112.64h583.68c14.138 0 25.6 11.462 25.6 25.6s-11.462 25.6-25.6 25.6H220.16c-14.138 0-25.6-11.462-25.6-25.6s11.462-25.6 25.6-25.6zm0 112.64h71.68c14.138 0 25.6 11.462 25.6 25.6s-11.462 25.6-25.6 25.6h-71.68c-14.138 0-25.6-11.462-25.6-25.6s11.462-25.6 25.6-25.6zm512 0h71.68c14.138 0 25.6 11.462 25.6 25.6s-11.462 25.6-25.6 25.6h-71.68c-14.138 0-25.6-11.462-25.6-25.6s11.462-25.6 25.6-25.6zm-512 122.88h71.68c14.138 0 25.6 11.462 25.6 25.6s-11.462 25.6-25.6 25.6h-71.68c-14.138 0-25.6-11.462-25.6-25.6s11.462-25.6 25.6-25.6zm512 0h71.68c14.138 0 25.6 11.462 25.6 25.6s-11.462 25.6-25.6 25.6h-71.68c-14.138 0-25.6-11.462-25.6-25.6s11.462-25.6 25.6-25.6z"/>
</g>
</svg>