<svg fill="#ffffff" width="256px" height="256px" viewBox="0 0 96 96" id="Layer_1_1_" version="1.1" xml:space="preserve" xmlns="http://www.w3.org/2000/svg" xmlns:xlink="http://www.w3.org/1999/xlink"><g id="SVGRepo_bgCarrier" stroke-width="0"></g><g id="SVGRepo_tracerCarrier" stroke-linecap="round" stroke-linejoin="round"></g><g id="SVGRepo_iconCarrier"><polygon points="38.833,20 43.434,20 43.624,17 39.333,17 "></polygon><polygon points="45.883,13 45.756,15 50.244,15 50.117,13 "></polygon><polygon points="52.376,17 52.566,20 57.167,20 56.667,17 "></polygon><polygon points="45.44,20 50.56,20 50.37,17 45.63,17 "></polygon><polygon points="52.123,13 52.25,15 56.333,15 56,13 "></polygon><polygon points="58,25 57.5,22 52.693,22 52.883,25 "></polygon><polygon points="38,25 43.117,25 43.307,22 38.5,22 "></polygon><polygon points="43.877,13 40,13 39.667,15 43.75,15 "></polygon><circle cx="13" cy="13" r="5"></circle><rect height="3" width="2" x="12" y="2"></rect><rect height="3" width="2" x="12" y="21"></rect><rect height="2" width="3" x="21" y="12"></rect><rect height="2" width="3" x="2" y="12"></rect><rect height="2" transform="matrix(0.7071 -0.7071 0.7071 0.7071 1.333 15.7826)" width="3" x="18.218" y="5.282"></rect><rect height="2" transform="matrix(0.7071 -0.7071 0.7071 0.7071 -12.1025 10.2174)" width="3" x="4.782" y="18.718"></rect><rect height="3" transform="matrix(0.7071 -0.7071 0.7071 0.7071 -8.1674 19.7178)" width="2" x="18.718" y="18.218"></rect><rect height="3" transform="matrix(0.7071 -0.7071 0.7071 0.7071 -2.6022 6.2822)" width="2" x="5.282" y="4.782"></rect><path d="M10,93c0-2.761,2.239-5,5-5s5,2.239,5,5v1h8V56h-4v-4.09c2.837-0.477,5-2.938,5-5.91c-2.972,0-5.433,2.163-5.91,5h-0.18 c-0.477-2.837-2.938-5-5.91-5c0,2.972,2.163,5.433,5,5.91V56H9v-4.09c2.837-0.477,5-2.938,5-5.91c-2.972,0-5.433,2.163-5.91,5H7.91 C7.433,48.163,4.972,46,2,46c0,2.972,2.163,5.433,5,5.91V56H2v38h8V93z M18,60h5v5h-5V60z M18,69h5v5h-5V69z M18,78h5v5h-5V78z M7,60h5v5H7V60z M7,69h5v5H7V69z M7,78h5v5H7V78z"></path><path d="M90,7c0-2.761-2.239-5-5-5s-5,2.239-5,5c0,0.05,0.013,0.096,0.015,0.146C79.689,7.06,79.353,7,79,7c-2.209,0-4,1.791-4,4 c0,2.209,1.791,4,4,4h11c2.209,0,4-1.791,4-4C94,8.791,92.209,7,90,7z"></path><path d="M94,55c-2.972,0-5.433,2.163-5.91,5h-0.18c-0.477-2.837-2.938-5-5.91-5c0,2.972,2.163,5.433,5,5.91V65H74v-4.09 c2.837-0.477,5-2.938,5-5.91c-2.972,0-5.433,2.163-5.91,5h-0.18c-0.477-2.837-2.938-5-5.91-5c0,2.972,2.163,5.433,5,5.91V65h-4v29h8 v-1c0-2.761,2.239-5,5-5s5,2.239,5,5v1h8V65h-5v-4.09C91.837,60.433,94,57.972,94,55z M78,83h-5v-5h5V83z M78,74h-5v-5h5V74z M89,83 h-5v-5h5V83z M89,74h-5v-5h5V74z"></path><path d="M47,88.91c-2.837-0.477-5-2.938-5-5.91c2.972,0,5.433,2.163,5.91,5h0.18c0.477-2.837,2.938-5,5.91-5 c0,2.972-2.163,5.433-5,5.91V94h14V79H33v15h14V88.91z"></path><path d="M49,72.91V77h14V63H33v14h14v-4.09c-2.837-0.477-5-2.938-5-5.91c2.972,0,5.433,2.163,5.91,5h0.18 c0.477-2.837,2.938-5,5.91-5C54,69.972,51.837,72.433,49,72.91z"></path><path d="M33,45h14v-4.09c-2.837-0.477-5-2.938-5-5.91c2.972,0,5.433,2.163,5.91,5h0.18c0.477-2.837,2.938-5,5.91-5 c0,2.972-2.163,5.433-5,5.91V45h14V30H49v-5h1.877l-0.19-3h-5.374l-0.19,3H47v5H33V45z"></path><path d="M33,61h14v-4.09c-2.837-0.477-5-2.938-5-5.91c2.972,0,5.433,2.163,5.91,5h0.18c0.477-2.837,2.938-5,5.91-5 c0,2.972-2.163,5.433-5,5.91V61h14V47H33V61z"></path></g></svg>